<svg xmlns="http://www.w3.org/2000/svg" xml:space="preserve" style="enable-background:new 0 0 308 100" viewBox="0 0 308 100"><path d="M50 0C22.4 0 0 22.4 0 50s22.4 50 50 50 50-22.4 50-50S77.6 0 50 0zm17.8 50.4c1.7 2.4 2.7 5.2 2.7 8.4 0 7.9-6.4 14.2-14.2 14.2H39.8L28.6 45.9c-.3-.7.2-1.4.9-1.4H35l-6.5-15.6c-.3-.7.2-1.4.9-1.4h27.2c4.6.1 8.6 2.4 11.1 5.9 1.7 2.4 2.7 5.2 2.7 8.4s-1 6.1-2.8 8.5c.1 0 .1 0 .2.1zM59 58.8c0 1.5-1.3 2.8-2.7 2.8h-8.8L45.2 56h11.2c1.4.1 2.6 1.3 2.6 2.8zm0-17c0 1.5-1.3 2.8-2.7 2.8h-8.8L45.2 39h11.2c1.4.1 2.6 1.3 2.6 2.8zm96.9 8.6c.6-.5 1.2-1 1.7-1.5 1.3-1.5 2-3.1 2-4.8 0-2.3-.5-4.1-1.6-5.6-1-1.5-2.5-2.6-4.3-3.3-1.8-.8-4-1.1-6.4-1.1l-4.4.1h-7.3c-.3 0-.6.3-.6.6V68c0 .3.3.6.6.6H149c2.4 0 4.5-.4 6.2-1.1 1.8-.8 3.2-1.9 4.2-3.4s1.5-3.4 1.5-5.5c0-2.6-.7-4.6-2.2-6.1-.8-.9-1.7-1.6-2.8-2.1zm-9.1-10.1c1.4 0 2.5.3 3.3.9.8.7 1.3 1.6 1.3 2.8 0 1.2-.4 2.1-1.2 2.7-.8.6-1.8.9-3.1.9h-4.2v-7.3h3.9zm4.5 20.2c-.8.7-1.9 1-3.3 1h-5.2V54h4.9c1.5 0 2.6.3 3.5 1 .8.7 1.3 1.6 1.3 2.8 0 1.1-.4 2-1.2 2.7zm20.5-25.9V68c0 .3-.3.6-.6.6h-6.7c-.3 0-.6-.3-.6-.6V34.6c0-.3.3-.6.6-.6h6.7c.3 0 .6.3.6.6zM194.9 45c-2-1.1-4.3-1.7-7-1.7-2.6 0-4.9.6-6.9 1.7s-3.6 2.6-4.7 4.5-1.7 4.2-1.7 6.7.6 4.8 1.7 6.7c1.2 1.9 2.8 3.5 4.8 4.6 2 1.1 4.3 1.6 7 1.6 2.6 0 4.9-.5 6.9-1.6s3.6-2.6 4.7-4.6c1.1-1.9 1.7-4.2 1.7-6.7s-.6-4.8-1.7-6.7c-1.2-1.9-2.8-3.4-4.8-4.5zm-2.3 14.3c-.4.9-1.1 1.5-1.9 2-.8.5-1.7.7-2.7.7-1.1 0-2-.2-2.9-.7-.8-.5-1.4-1.2-1.9-2-.4-.9-.7-1.9-.7-3.1 0-1.1.2-2.2.7-3 .5-.9 1.1-1.6 1.9-2.1.8-.5 1.7-.7 2.8-.7 1 0 2 .2 2.8.7.8.5 1.4 1.2 1.9 2.1.5.9.7 1.9.7 3 0 1.2-.3 2.2-.7 3.1zm35.5 2.8c-1 2.2-2.5 3.9-4.4 5.1-2.1 1.3-4.5 2-7 2-2.7 0-5.1-.5-7.2-1.6-2.1-1.1-3.7-2.6-4.9-4.6-1.2-2-1.8-4.2-1.8-6.7s.6-4.8 1.8-6.7c1.2-1.9 2.8-3.5 4.8-4.5 2.1-1.1 4.5-1.7 7.1-1.7 2.6 0 4.9.6 7.1 1.9 2 1.2 3.4 2.9 4.4 5 .1.3 0 .6-.3.7l-6.4 2.1c-.3.1-.6 0-.7-.3-.4-.6-.9-1.1-1.6-1.5-.8-.5-1.8-.8-2.8-.8-1 0-2 .2-2.8.7-.8.5-1.4 1.1-1.9 2-.4.9-.7 1.8-.7 3s.2 2.1.7 3c.5.8 1.1 1.5 1.9 2 .8.5 1.8.7 2.8.7 1 0 2-.3 2.8-.8.7-.4 1.2-1 1.6-1.6.1-.2.4-.4.7-.3l6.4 2.1c.4.1.5.5.4.8zm27.1 5.6c.3.4 0 .9-.5.9H247c-.2 0-.4-.1-.5-.2l-5.9-8.2-2.3 2.6V68c0 .3-.3.6-.6.6H231c-.3 0-.6-.3-.6-.6V34.6c0-.3.3-.6.6-.6h6.7c.3 0 .6.3.6.6v17.6l7.4-8.1c.1-.1.3-.2.4-.2h7.7c.5 0 .7.6.4.9l-8.7 9.7 9.7 13.2zm22.1-9.5c.5 1.1.8 2.2.8 3.4 0 1.5-.5 2.9-1.4 4-.9 1.1-2.2 2-3.8 2.6-1.6.6-3.5.9-5.7.9-1.6 0-3.2-.2-4.6-.7-1.4-.5-2.6-1.2-3.7-2-.7-.6-1.4-1.4-1.8-2.2-.3-.5 0-1.2.5-1.4l4.9-2c.3-.1.6 0 .7.3.4.6.9 1.1 1.5 1.5.8.4 1.6.6 2.4.6.8 0 1.5-.1 2-.4.5-.3.7-.7.7-1.2s-.3-.9-.8-1.2c-.5-.3-1.2-.6-2.1-.8l-2.2-.5c-2.3-.6-4.2-1.6-5.4-2.9-1.2-1.4-1.9-3-1.9-4.8 0-2.5.9-4.5 2.7-5.9 1.8-1.4 4.2-2.1 7.4-2.1 1.8 0 3.3.2 4.7.7 1.4.5 2.5 1.1 3.4 2 .7.6 1.2 1.2 1.6 1.9.3.5 0 1.2-.6 1.4l-4.7 1.9c-.3.1-.6 0-.8-.3-.3-.4-.7-.7-1.2-1-.7-.4-1.5-.5-2.4-.5-.7 0-1.3.2-1.7.5-.4.3-.6.7-.6 1.2 0 .4.2.7.7 1 .5.3 1.2.5 2.2.7l2.7.6c1.6.4 2.9 1 4 1.8 1.2.8 2 1.8 2.5 2.9zm30.6-13.5L297.2 70c-.7 1.8-1.5 3.3-2.3 4.7-.8 1.3-1.8 2.4-3 3.2-1.2.8-2.7 1.1-4.7 1.1-1.1 0-2.2-.2-3.4-.6-1-.3-1.8-.7-2.5-1-.3-.1-.4-.5-.2-.7l2.4-5.2c.1-.3.5-.4.8-.2.3.2.5.3.8.4.5.2.9.2 1.3.2.6 0 1.2-.2 1.7-.5s.9-.8 1.2-1.5l.7-1.7-11.2-23.5c-.2-.4.1-.8.5-.8h7c.5 0 .9.3 1 .7l6.2 15 5.8-14.9c.2-.4.6-.7 1-.7h7.1c.4-.1.7.3.5.7z" style="fill:#303c55"/></svg>